#!OML:ASF I:\Actors\actors\Patient Classification 2\Patient 1\Session 1\actor1.ASF
:FULLY-SPECIFIED
:DEGREES
804
root -0.862127 18.6082 5.90577 -2.67136 -3.51153 -4.67028
lowerback 6.05449 1.48732 2.68204
upperback 0.80027 2.21279 2.04009
thorax -2.54781 1.08429 0.417053
lowerneck -11.1197 -2.64681 -2.24398
upperneck 16.3352 -3.90667 3.87046
head 6.94371 -1.68431 1.25677
rclavicle -3.88376e-014 -7.45443e-015
rhumerus -52.6509 -7.06209 -82.3951
rradius 48.5925
rwrist -0.40103
rhand -10.3666 -33.1731
rfingers 7.12502
rthumb 15.6306 -62.5617
lclavicle -3.88376e-014 -7.45443e-015
lhumerus -47.5431 -8.47026 95.5829
lradius 52.7641
lwrist 9.86745
lhand -5.53745 -15.3639
lfingers 7.12502
lthumb 20.277 13.5976
rfemur 11.837 -4.1675 18.2388
rtibia 4.29375e-014
rfoot -12.8403 -5.47327
rtoes -7.5107
lfemur 1.37972 -8.74825 -11.0185
ltibia 23.0576
lfoot -23.4343 9.52399
ltoes -56.7722
805
root -0.860976 18.61 5.91081 -2.61261 -3.56918 -4.65546
lowerback 6.00306 1.487 2.66424
upperback 0.736141 2.21096 2.02912
thorax -2.58547 1.08282 0.416303
lowerneck -11.0575 -2.61763 -2.249
upperneck 16.3732 -3.87478 3.90679
head 6.94479 -1.66662 1.27304
rclavicle -6.55058e-015 -1.41137e-014
rhumerus -52.5868 -7.04696 -82.432
rradius 48.448
rwrist -0.0818152
rhand -10.3695 -33.0093
rfingers 7.12502
rthumb 15.6278 -62.398
lclavicle -6.55058e-015 -1.41137e-014
lhumerus -47.332 -8.16324 95.4128
lradius 52.082
lwrist 9.56685
lhand -5.52644 -15.5911
lfingers 7.12502
lthumb 20.2875 13.3693
rfemur 11.7731 -4.11078 18.2292
rtibia 4.77083e-015
rfoot -12.8344 -5.49037
rtoes -7.42143
lfemur 1.38965 -8.89714 -11.0783
ltibia 23.0076
lfoot -23.5099 9.71138
ltoes -56.7399
806
root -0.860039 18.6111 5.91748 -2.55269 -3.6388 -4.63064
lowerback 5.93018 1.48483 2.6171
upperback 0.672045 2.20405 2.02399
thorax -2.61247 1.0793 0.438982
lowerneck -11.1184 -2.61683 -2.17596
upperneck 16.5359 -3.87729 3.82176
head 7.00495 -1.66826 1.23249
rclavicle -3.21798e-014 -5.96354e-015
rhumerus -52.5463 -6.98492 -82.4751
rradius 48.3388
rwrist 0.248766
rhand -10.3678 -33.0028
rfingers 7.12502
rthumb 15.6294 -62.3914
lclavicle -3.21798e-014 -5.96354e-015
lhumerus -47.1548 -7.79645 95.2149
lradius 51.4086
lwrist 9.24897
lhand -5.59162 -15.9604
lfingers 7.12502
lthumb 20.2249 13.0067
rfemur 11.7156 -4.04184 18.2099
rtibia 6.36111e-015
rfoot -12.8567 -5.50008
rtoes -7.3519
lfemur 1.40373 -8.92898 -11.1239
ltibia 22.9536
lfoot -23.5635 9.78955
ltoes -56.6966
807
root -0.859575 18.6131 5.92419 -2.48399 -3.71785 -4.59892
lowerback 5.83951 1.49112 2.55853
upperback 0.613992 2.20678 2.01825
thorax -2.62357 1.08092 0.46725
lowerneck -11.289 -2.65347 -2.01114
upperneck 16.8133 -3.92257 3.58175
head 7.11802 -1.69571 1.12103
rclavicle 4.04713e-015 -9.14409e-015
rhumerus -52.5001 -6.93654 -82.5279
rradius 48.2324
rwrist 0.648628
rhand -10.4144 -32.9792
rfingers 7.12502
rthumb 15.5845 -62.3713
lclavicle 4.04713e-015 -9.14409e-015
lhumerus -46.8801 -7.33503 94.9734
lradius 50.587
lwrist 8.8003
lhand -5.70334 -16.3775
lfingers 7.12502
lthumb 20.1175 12.6009
rfemur 11.6519 -3.96366 18.1852
rtibia -1.59028e-014
rfoot -12.8779 -5.49773
rtoes -7.1995
lfemur 1.40918 -8.91161 -11.1542
ltibia 22.9049
lfoot -23.6447 9.73357
ltoes -56.4961
808
root -0.858621 18.6157 5.92994 -2.41962 -3.76848 -4.51616
lowerback 5.75089 1.49827 2.46887
upperback 0.559454 2.20802 1.98762
thorax -2.63235 1.08211 0.487391
lowerneck -11.2312 -2.63732 -1.9855
upperneck 16.8255 -3.90723 3.58577
head 7.11089 -1.68701 1.12026
rclavicle 2.26879e-014 1.56046e-014
rhumerus -52.4456 -6.87702 -82.6161
rradius 48.1272
rwrist 1.0755
rhand -10.4785 -32.8412
rfingers 7.12502
rthumb 15.5229 -62.2381
lclavicle 2.26879e-014 1.56046e-014
lhumerus -46.5508 -6.88025 94.7214
lradius 49.6827
lwrist 8.31371
lhand -5.75028 -16.7232
lfingers 7.12502
lthumb 20.0724 12.26
rfemur 11.5905 -3.91068 18.1004
rtibia -9.54166e-015
rfoot -12.8604 -5.49132
rtoes -6.98586
lfemur 1.41452 -8.99694 -11.2648
ltibia 22.8621
lfoot -23.7561 9.75383
ltoes -56.2979
809
root -0.857004 18.617 5.93567 -2.38411 -3.81504 -4.47165
lowerback 5.66489 1.4981 2.42104
upperback 0.533228 2.20182 1.97053
thorax -2.6124 1.07959 0.49906
lowerneck -10.9911 -2.56808 -2.12354
upperneck 16.5802 -3.82609 3.83407
head 6.99442 -1.64064 1.23411
rclavicle -5.41688e-015 -9.93923e-016
rhumerus -52.3669 -6.75952 -82.7366
rradius 48.0469
rwrist 1.50435
rhand -10.4404 -32.679
rfingers 7.12502
rthumb 15.5595 -62.0731
lclavicle -5.41688e-015 -9.93923e-016
lhumerus -46.2099 -6.39849 94.4546
lradius 48.7888
lwrist 7.83324
lhand -5.71851 -17.0825
lfingers 7.12502
lthumb 20.1029 11.8974
rfemur 11.567 -3.86266 18.052
rtibia 1.90833e-014
rfoot -12.8631 -5.48238
rtoes -6.83727
lfemur 1.4517 -9.07958 -11.3485
ltibia 22.8136
lfoot -23.8289 9.85455
ltoes -56.2621
810
root -0.855901 18.6165 5.94236 -2.36933 -3.88284 -4.49801
lowerback 5.57118 1.49448 2.44229
upperback 0.521394 2.19503 1.97074
thorax -2.57141 1.07634 0.490434
lowerneck -10.8628 -2.52247 -2.19713
upperneck 16.4745 -3.77438 3.98029
head 6.94031 -1.61057 1.29982
rclavicle 1.07934e-015 -9.93923e-016
rhumerus -52.3027 -6.61912 -82.8812
rradius 47.98
rwrist 1.9485
rhand -10.3805 -32.6281
rfingers 7.12502
rthumb 15.6172 -62.0177
lclavicle 1.07934e-015 -9.93923e-016
lhumerus -45.9146 -5.85017 94.1538
lradius 47.9436
lwrist 7.30406
lhand -5.69283 -17.3971
lfingers 7.12502
lthumb 20.1276 11.5802
rfemur 11.5751 -3.79665 18.0805
rtibia 1.59028e-015
rfoot -12.9358 -5.47626
rtoes -6.72076
lfemur 1.51111 -9.08219 -11.3419
ltibia 22.763
lfoot -23.8535 9.93371
ltoes -56.3007
811
root -0.854149 18.6155 5.94933 -2.34395 -3.95405 -4.49457
lowerback 5.48079 1.4859 2.45505
upperback 0.481803 2.18149 1.94753
thorax -2.56032 1.06932 0.462408
lowerneck -10.9025 -2.51373 -2.09146
upperneck 16.6333 -3.76986 3.88319
head 6.99448 -1.60808 1.25098
rclavicle 2.05773e-015 1.73937e-014
rhumerus -52.2623 -6.47265 -83.0472
rradius 47.8691
rwrist 2.40305
rhand -10.4228 -32.6202
rfingers 7.12502
rthumb 15.5765 -62.013
lclavicle 2.05773e-015 1.73937e-014
lhumerus -45.642 -5.24243 93.8136
lradius 47.0532
lwrist 6.72153
lhand -5.67765 -17.727
lfingers 7.12502
lthumb 20.1422 11.2488
rfemur 11.563 -3.7255 18.0747
rtibia 2.54444e-014
rfoot -12.9843 -5.48357
rtoes -6.74074
lfemur 1.54737 -9.03338 -11.3601
ltibia 22.7201
lfoot -23.8426 10.003
ltoes -56.3606
812
root -0.85107 18.6156 5.95507 -2.3067 -4.02836 -4.48388
lowerback 5.41911 1.47584 2.47771
upperback 0.421382 2.16839 1.92521
thorax -2.58648 1.06192 0.428586
lowerneck -10.9317 -2.51698 -1.95442
upperneck 16.8025 -3.77171 3.69771
head 7.04809 -1.61441 1.1678
rclavicle 5.39669e-016 1.78906e-015
rhumerus -52.2543 -6.31286 -83.2032
rradius 47.7704
rwrist 2.87957
rhand -10.5129 -32.4795
rfingers 7.12502
rthumb 15.4897 -61.879
lclavicle 5.39669e-016 1.78906e-015
lhumerus -45.3481 -4.55792 93.4372
lradius 45.9871
lwrist 6.18088
lhand -5.72497 -18.5842
lfingers 7.12502
lthumb 20.0967 10.3964
rfemur 11.5308 -3.65053 18.0571
rtibia -2.22639e-014
rfoot -12.9903 -5.4685
rtoes -6.55075
lfemur 1.5589 -8.96379 -11.3838
ltibia 22.6874
lfoot -23.8297 10.053
ltoes -56.397
813
root -0.84915 18.617 5.95908 -2.25748 -4.08338 -4.48579
lowerback 5.35785 1.46752 2.49764
upperback 0.368444 2.15757 1.91672
thorax -2.60578 1.05586 0.41043
lowerneck -10.7582 -2.48313 -1.95051
upperneck 16.7051 -3.72694 3.71186
head 6.98485 -1.59469 1.17795
rclavicle -8.93444e-015 2.87741e-014
rhumerus -52.233 -6.20044 -83.3261
rradius 47.6981
rwrist 3.40021
rhand -10.5472 -32.3351
rfingers 7.12502
rthumb 15.4567 -61.7372
lclavicle -8.93444e-015 2.87741e-014
lhumerus -45.0778 -3.87225 93.0606
lradius 44.873
lwrist 5.73959
lhand -5.81775 -19.7864
lfingers 7.12502
lthumb 20.0075 9.20357
rfemur 11.4894 -3.59664 18.0584
rtibia 3.65764e-014
rfoot -13.0133 -5.44365
rtoes -6.26052
lfemur 1.54788 -8.9262 -11.3821
ltibia 22.6654
lfoot -23.8654 10.0483
ltoes -56.3588
814
root -0.848691 18.6182 5.96223 -2.21496 -4.10767 -4.49629
lowerback 5.28679 1.46211 2.51335
upperback 0.341349 2.14915 1.90879
thorax -2.5931 1.05146 0.395705
lowerneck -10.6141 -2.44693 -1.95695
upperneck 16.5899 -3.68353 3.76746
head 6.92218 -1.57249 1.20266
rclavicle 4.73667e-017 1.38155e-014
rhumerus -52.1357 -6.16409 -83.3963
rradius 47.6447
rwrist 4.17072
rhand -10.0911 -32.6409
rfingers 7.12502
rthumb 15.8959 -62.0085
lclavicle 4.73667e-017 1.38155e-014
lhumerus -44.8028 -3.28231 92.7417
lradius 43.9427
lwrist 5.22113
lhand -5.86062 -20.3703
lfingers 7.12502
lthumb 19.9663 8.6239
rfemur 11.4541 -3.5747 18.0752
rtibia 2.22639e-014
rfoot -13.0401 -5.43817
rtoes -6.28643
lfemur 1.53611 -8.92658 -11.3668
ltibia 22.6538
lfoot -23.9187 10.0287
ltoes -56.3017
815
root -0.847845 18.6183 5.96525 -2.18732 -4.13286 -4.49557
lowerback 5.2048 1.45997 2.51896
upperback 0.335241 2.14329 1.89892
thorax -2.55292 1.04883 0.385074
lowerneck -10.5948 -2.43963 -1.93606
upperneck 16.6005 -3.67592 3.7563
head 6.92135 -1.56864 1.19652
rclavicle -4.07726e-014 9.19379e-015
rhumerus -52.0286 -6.08546 -83.4783
rradius 47.6141
rwrist 4.82415
rhand -9.53481 -33.0279
rfingers 7.12502
rthumb 16.4316 -62.352
lclavicle -4.07726e-014 9.19379e-015
lhumerus -44.4392 -2.76494 92.4891
lradius 43.0602
lwrist 4.56796
lhand -5.92355 -20.3857
lfingers 7.12502
lthumb 19.9058 8.6148
rfemur 11.43 -3.5505 18.0771
rtibia 1.90833e-014
rfoot -13.0265 -5.4185
rtoes -6.25826
lfemur 1.53508 -8.9523 -11.3784
ltibia 22.6469
lfoot -23.9485 10.0597
ltoes -56.2808
816
root -0.846394 18.6185 5.96837 -2.15473 -4.17209 -4.46763
lowerback 5.1163 1.46218 2.51182
upperback 0.326343 2.14202 1.87724
thorax -2.51192 1.04856 0.369221
lowerneck -10.584 -2.43562 -1.95043
upperneck 16.6216 -3.67274 3.77782
head 6.92683 -1.5661 1.20624
rclavicle -1.04401e-014 -1.20265e-014
rhumerus -51.9292 -5.95577 -83.6434
rradius 47.5193
rwrist 5.02902
rhand -9.04421 -33.0724
rfingers 7.12502
rthumb 16.9039 -62.3567
lclavicle -1.04401e-014 -1.20265e-014
lhumerus -44.0824 -2.29828 92.2613
lradius 42.1697
lwrist 3.88263
lhand -6.02455 -20.3716
lfingers 7.12502
lthumb 19.8088 8.639
rfemur 11.4012 -3.51031 18.044
rtibia 2.22639e-014
rfoot -13.0255 -5.3975
rtoes -6.02488
lfemur 1.52943 -8.95448 -11.4225
ltibia 22.638
lfoot -23.9698 10.0874
ltoes -56.2544
817
root -0.845599 18.6199 5.97086 -2.10261 -4.2142 -4.45802
lowerback 5.04336 1.46927 2.52176
upperback 0.297056 2.14947 1.85371
thorax -2.49986 1.05205 0.340576
lowerneck -10.5667 -2.43146 -1.94389
upperneck 16.6455 -3.66849 3.7731
head 6.93113 -1.56405 1.20421
rclavicle 7.98866e-015 1.28216e-014
rhumerus -51.7868 -5.85836 -83.8106
rradius 47.3746
rwrist 5.39048
rhand -7.80369 -33.2122
rfingers 7.12502
rthumb 18.0977 -62.3902
lclavicle 7.98866e-015 1.28216e-014
lhumerus -43.8527 -1.95914 92.0655
lradius 41.4498
lwrist 3.27723
lhand -6.05378 -20.4612
lfingers 7.12502
lthumb 19.7807 8.55228
rfemur 11.3581 -3.46866 18.0301
rtibia 4.77083e-015
rfoot -13.0909 -5.36671
rtoes -5.67
lfemur 1.50879 -8.94702 -11.4349
ltibia 22.6178
lfoot -24.0052 10.0634
ltoes -56.1432
818
root -0.845493 18.6224 5.9738 -2.03969 -4.29004 -4.44417
lowerback 4.96444 1.49061 2.50028
upperback 0.262472 2.1744 1.84235
thorax -2.49133 1.06461 0.340896
lowerneck -10.5338 -2.42538 -1.95942
upperneck 16.6663 -3.66101 3.78655
head 6.93234 -1.56049 1.21215
rclavicle -3.6802e-014 -6.36111e-015
rhumerus -51.6246 -5.72079 -83.9639
rradius 47.2106
rwrist 5.82139
rhand -7.01657 -33.3401
rfingers 7.12502
rthumb 18.8549 -62.4462
lclavicle -3.6802e-014 -6.36111e-015
lhumerus -43.6376 -1.64983 91.9044
lradius 40.793
lwrist 2.66817
lhand -6.0023 -20.523
lfingers 7.12502
lthumb 19.8301 8.48539
rfemur 11.2965 -3.39394 18.0175
rtibia 9.54166e-015
rfoot -13.125 -5.32383
rtoes -5.38864
lfemur 1.49443 -8.98269 -11.4629
ltibia 22.5813
lfoot -24.0511 10.0958
ltoes -56.0274
